<svg width="51" height="20" viewBox="0 0 51 20" fill="none" xmlns="http://www.w3.org/2000/svg">
<path d="M12.9655 17.616C12.4055 17.856 11.8135 18.04 11.1895 18.168C10.5655 18.312 9.91753 18.384 9.24553 18.384C7.96553 18.384 6.77353 18.152 5.66953 17.688C4.58153 17.224 3.63753 16.592 2.83753 15.792C2.03753 14.976 1.40553 14.024 0.941531 12.936C0.493531 11.832 0.269531 10.656 0.269531 9.408C0.269531 8.16 0.493531 6.992 0.941531 5.904C1.40553 4.8 2.03753 3.848 2.83753 3.048C3.63753 2.232 4.58153 1.592 5.66953 1.128C6.77353 0.663999 7.96553 0.431999 9.24553 0.431999C10.5255 0.431999 11.7095 0.663999 12.7975 1.128C13.9015 1.592 14.8535 2.232 15.6535 3.048C16.4535 3.848 17.0775 4.8 17.5255 5.904C17.9895 6.992 18.2215 8.16 18.2215 9.408C18.2215 10.736 17.9735 11.968 17.4775 13.104C16.9815 14.24 16.2855 15.216 15.3895 16.032L16.7095 18L14.3095 19.608L12.9655 17.616ZM9.31753 12.144L11.7175 10.512L13.5895 13.344C14.0215 12.848 14.3575 12.272 14.5975 11.616C14.8535 10.944 14.9815 10.208 14.9815 9.408C14.9815 8.528 14.8295 7.728 14.5255 7.008C14.2375 6.272 13.8295 5.648 13.3015 5.136C12.7895 4.624 12.1815 4.224 11.4775 3.936C10.7895 3.648 10.0455 3.504 9.24553 3.504C8.44553 3.504 7.69353 3.648 6.98953 3.936C6.30153 4.224 5.69353 4.624 5.16553 5.136C4.65353 5.648 4.24553 6.272 3.94153 7.008C3.65353 7.728 3.50953 8.528 3.50953 9.408C3.50953 10.288 3.65353 11.096 3.94153 11.832C4.24553 12.552 4.65353 13.168 5.16553 13.68C5.69353 14.192 6.30153 14.592 6.98953 14.88C7.69353 15.168 8.44553 15.312 9.24553 15.312C9.59753 15.312 9.93353 15.28 10.2535 15.216C10.5735 15.152 10.8855 15.064 11.1895 14.952L9.31753 12.144ZM18.6867 6.24H22.2627L25.1907 13.728H25.3587L28.3107 6.24H31.8627L26.7987 18H23.7027L18.6867 6.24ZM34.6381 4.536C34.3661 4.536 34.1021 4.488 33.8461 4.392C33.6061 4.28 33.3901 4.136 33.1981 3.96C33.0221 3.768 32.8781 3.552 32.7661 3.312C32.6701 3.072 32.6221 2.808 32.6221 2.52C32.6221 2.232 32.6701 1.968 32.7661 1.728C32.8781 1.488 33.0221 1.28 33.1981 1.104C33.3901 0.911999 33.6061 0.767999 33.8461 0.671999C34.1021 0.559999 34.3661 0.503999 34.6381 0.503999C35.1981 0.503999 35.6781 0.703999 36.0781 1.104C36.4781 1.488 36.6781 1.96 36.6781 2.52C36.6781 3.08 36.4781 3.56 36.0781 3.96C35.6781 4.344 35.1981 4.536 34.6381 4.536ZM33.0781 18V6.24H36.2221V18H33.0781ZM47.3318 16.584H47.1398C46.8518 17.08 46.4038 17.504 45.7958 17.856C45.1878 18.208 44.4358 18.384 43.5398 18.384C42.7878 18.384 42.0678 18.232 41.3798 17.928C40.7078 17.608 40.1078 17.176 39.5798 16.632C39.0678 16.072 38.6598 15.408 38.3558 14.64C38.0518 13.872 37.8998 13.032 37.8998 12.12C37.8998 11.208 38.0518 10.368 38.3558 9.6C38.6598 8.832 39.0678 8.176 39.5798 7.632C40.1078 7.072 40.7078 6.64 41.3798 6.336C42.0678 6.016 42.7878 5.856 43.5398 5.856C44.4358 5.856 45.1878 6.032 45.7958 6.384C46.4038 6.736 46.8518 7.16 47.1398 7.656H47.3318L47.1398 5.976V0.816H50.2838V18H47.3318V16.584ZM44.1878 15.48C44.6038 15.48 44.9958 15.408 45.3638 15.264C45.7478 15.104 46.0838 14.88 46.3718 14.592C46.6598 14.304 46.8918 13.952 47.0678 13.536C47.2438 13.12 47.3318 12.648 47.3318 12.12C47.3318 11.592 47.2438 11.12 47.0678 10.704C46.8918 10.288 46.6598 9.936 46.3718 9.648C46.0838 9.36 45.7478 9.144 45.3638 9C44.9958 8.84 44.6038 8.76 44.1878 8.76C43.7718 8.76 43.3718 8.84 42.9878 9C42.6198 9.16 42.2918 9.384 42.0038 9.672C41.7158 9.96 41.4838 10.312 41.3078 10.728C41.1318 11.144 41.0438 11.608 41.0438 12.12C41.0438 12.632 41.1318 13.096 41.3078 13.512C41.4838 13.928 41.7158 14.28 42.0038 14.568C42.2918 14.856 42.6198 15.08 42.9878 15.24C43.3718 15.4 43.7718 15.48 44.1878 15.48Z" fill="white"/>
</svg>
